{"title":"The Man on the Train 2011 DvDScr XviD Feel-Free","uid":6869586,"size":641753421,"categoryP":"video","categoryS":"movies","magnet":"?xt=urn:btih:f4bc4484a50435f0c98d86fd09accc9e1d61c88a&amp;dn=The+Man+on+the+Train+2011+DvDScr+XviD+Feel-Free&amp;tr=udp%3A%2F%2Ftracker.openbittorrent.com%3A80&amp;tr=udp%3A%2F%2Fopen.demonii.com%3A1337&amp;tr=udp%3A%2F%2Ftracker.coppersurfer.tk%3A6969&amp;tr=udp%3A%2F%2Fexodus.desync.com%3A6969","seeders":2,"leechers":0,"uploader":".BONE.","files":9,"time":1323238580,"description":"Genre: Drama\nLanguage:English\n &lt;a href=&quot;\nhttp://www.imdb.com/title/tt1646922/&quot; rel=&quot;nofollow&quot; target=&quot;_NEW&quot;&gt;\nhttp://www.imdb.com/title/tt1646922/&lt;/a&gt;\n\nSource:DvdScr Thanks!\n\nFormat : AVI\nFormat/Info : Audio Video Interleave\nFile size : 611 MiB\nDuration : 1h 40mn\nOverall bit rate : 853 Kbps\n\nVideo\nID : 0\nFormat : MPEG-4 Visual\nFormat profile : Advanced Simple@L5\nFormat settings, BVOP : Yes\nFormat settings, QPel : No\nFormat settings, GMC : No warppoints\nFormat settings, Matrix : Default (H.263)\nCodec ID : XVID\nCodec ID/Hint : XviD\nDuration : 1h 40mn\nBit rate : 683 Kbps\nWidth : 720 pixels\nHeight : 304 pixels\nDisplay aspect ratio : 2.35:1\nFrame rate : 23.976 fps\nColor space : YUV\nChroma subsampling : 4:2:0\nBit depth : 8 bits\nScan type : Progressive\nBits/(Pixel*Frame) : 0.130\nStream size : 490 MiB (80%)\nWriting library : XviD 1.2.1 (UTC 2008-12-04)\n\nAudio\nID : 1\nFormat : AC-3\nFormat/Info : Audio Coding 3\nMode extension : CM (complete main)\nCodec ID : 2000\nDuration : 1h 40mn\nBit rate mode : Constant\nBit rate : 160 Kbps\nChannel(s) : 2 channels\nChannel positions : Front: L R\nSampling rate : 48.0 KHz\nBit depth : 16 bits\nStream size : 115 MiB (19%)\nAlignment : Aligned on interleaves\nInterleave, duration : 42 ms (1.00 video frame)\nInterleave, preload duration : 512 ms\n\n\nPlot:\nA mysterious criminal rolls into a small town planning to knock off the local bank, assuming it will go off without a hitch.\n","torrent":{"xt":"urn:btih:f4bc4484a50435f0c98d86fd09accc9e1d61c88a","amp;dn":"The+Man+on+the+Train+2011+DvDScr+XviD+Feel-Free","amp;tr":["udp%3A%2F%2Ftracker.openbittorrent.com%3A80","udp%3A%2F%2Fopen.demonii.com%3A1337","udp%3A%2F%2Ftracker.coppersurfer.tk%3A6969","udp%3A%2F%2Fexodus.desync.com%3A6969"],"infoHash":"f4bc4484a50435f0c98d86fd09accc9e1d61c88a","infoHashBuffer":{"type":"Buffer","data":[244,188,68,132,165,4,53,240,201,141,134,253,9,172,204,158,29,97,200,138]},"announce":[],"urlList":[]}}